<svg  width="309" height="41" viewBox="0 0 309 41" fill="none" xmlns="http://www.w3.org/2000/svg">
<g clip-path="url(#clip0)">
<path d="M72.0146 15.1587H45.8864L44.9183 15.939V40.993H52.1513V31.5979L52.8417 30.931H72.0156C76.8568 30.931 79.1265 29.527 79.1265 25.9246V20.1721C79.1255 16.5637 76.8568 15.1587 72.0146 15.1587ZM72.0146 24.4212C72.0146 26.1185 70.973 26.471 68.7033 26.471H52.9209L52.1503 25.6635V20.2966L52.8407 19.6157H68.7033C70.973 19.6157 72.0146 19.9642 72.0146 21.6695V24.4212Z" fill="white"/>
<path d="M92.3159 19.8979L98.5398 29.7269L98.1951 30.6789H84.4308L80.9172 35.3378H101.406L102.826 36.2698L106.007 40.999H114.284L96.1406 14.8383" fill="white"/>
<path d="M174.621 35.9103V28.9566L175.366 28.2637H189.213V23.8358H167.266V40.998H199.64V36.5912H175.399" fill="white"/>
<path d="M199.982 15.1587H167.266V20.0275H199.982V15.1587Z" fill="white"/>
<path d="M130.777 19.7694H157.134C156.728 16.1569 154.648 15.1547 149.373 15.1547H130.497C124.544 15.1547 122.645 16.407 122.645 21.2627V34.8859C122.645 39.7466 124.544 40.999 130.497 40.999H149.373C154.725 40.999 156.775 39.9153 156.915 36.1684H130.777L130.002 35.382V20.2956" fill="white"/>
<path d="M27.3302 25.2257H8.15631L7.59169 24.5558V20.135L8.15352 19.667H34.0014L34.3545 18.736C33.474 16.2946 31.1941 15.1557 26.9603 15.1557H9.00511C3.05607 15.1557 1.15442 16.408 1.15442 21.2638V24.12C1.15442 28.9817 3.05607 30.2321 9.00511 30.2321H28.1362L28.7371 30.8005V35.4222L28.247 36.1433H6.36368V36.1212H0.631725C0.631725 36.1212 -0.0242068 36.4757 0.000949679 36.6414C0.490104 40.0379 2.63679 41 7.77617 41H27.3302C33.2783 41 35.2368 39.7477 35.2368 34.8869V31.3287C35.2368 26.476 33.2783 25.2257 27.3302 25.2257Z" fill="white"/>
<path d="M220.562 15.0522H209.8L209.215 16.2504L221.167 25.6414C223.432 24.2284 225.895 22.7963 228.575 21.3833" fill="white"/>
<path d="M230.205 32.7428L240.71 41H251.604L252.055 39.9063L236.369 27.5305C234.285 29.1786 232.227 30.919 230.205 32.7428Z" fill="white"/>
<path d="M218.96 40.9809H209.223L208.4 39.592C215.021 32.7016 244.633 3.16451 309 0C309 0 254.973 1.96439 218.96 40.9809Z" fill="#A7A9AC"/>
</g>
<defs>
<clipPath id="clip0">
<rect width="309" height="41" fill="white"/>
</clipPath>
</defs>
</svg>
